<?xml version="1.0" encoding="UTF-8"?>
<svg id="Calque_2" data-name="Calque 2" xmlns="http://www.w3.org/2000/svg" viewBox="0 0 152.51 35.11">
  <g id="Calque_1-2" data-name="Calque 1">
    <path d="M145.39,0v20.14h2.16c2.75,0,4.97,2.23,4.97,4.97v4.34c0,2.74-2.21,4.96-4.95,4.97l-11.78.06-.11-.37c-1-9.37-8.93-16.66-18.57-16.66s-17.79,7.51-18.6,17.07l-.11.14-46.66.23h0c-.52-9.84-8.63-17.45-18.61-17.45s-18.2,7.77-18.68,17.65l-.21-.03h-7.55c-1.86,0-3.5-1.19-4.08-2.96L.16,24.61c-.66-2.04.86-4.13,3-4.13h2.14V0h140.09Z"/>
  </g>
</svg>