<?xml version="1.0" encoding="UTF-8"?>
<svg id="Calque_2" data-name="Calque 2" xmlns="http://www.w3.org/2000/svg" viewBox="0 0 140.09 38.55">
  <g id="Calque_1-2" data-name="Calque 1">
    <path d="M138.41,32.39c-3.67-4.85-12.56-16.51-18.52-23.81C112.22-.82,100.99.05,100.99.05,100.99.05,36.4-.06,24.19.05c-8.38.07-13.55,4.02-15.97,6.48-1.01,1.03-1.73,2.31-2.1,3.71L.57,31.58c-.38,1.44-.57,2.92-.57,4.41v2.55h140.09s0-1.15,0-1.15c0-1.81-.59-3.56-1.68-5ZM42.17,30.69H6.64l5.7-19.23h29.83v19.23ZM85.26,30.69h-36.73V11.46h36.73v19.23ZM94.14,30.84V11.45h20.79l14.09,19.25-34.88.14Z"/>
  </g>
</svg>